<svg xmlns="http://www.w3.org/2000/svg" xmlns:xlink="http://www.w3.org/1999/xlink" width="450" zoomAndPan="magnify" viewBox="0 0 337.5 187.499995" height="250" preserveAspectRatio="xMidYMid meet" version="1.0"><defs><g/><clipPath id="bee4a4cc25"><path d="M 18 7 L 336.800781 7 L 336.800781 180 L 18 180 Z M 18 7 " clip-rule="nonzero"/></clipPath><clipPath id="db96dedc1d"><path d="M 0.871094 27 L 153 27 L 153 100 L 0.871094 100 Z M 0.871094 27 " clip-rule="nonzero"/></clipPath><clipPath id="3bbbd68014"><rect x="0" width="153" y="0" height="73"/></clipPath><clipPath id="d14fa39da7"><rect x="0" width="155" y="0" height="62"/></clipPath><clipPath id="e458279f53"><rect x="0" width="112" y="0" height="146"/></clipPath><clipPath id="de500aa206"><path d="M 206 0.660156 L 318.800781 0.660156 L 318.800781 172.519531 L 206 172.519531 Z M 206 0.660156 " clip-rule="nonzero"/></clipPath><clipPath id="c59f33b9b2"><path d="M 186 0.660156 L 318.800781 0.660156 L 318.800781 172.519531 L 186 172.519531 Z M 186 0.660156 " clip-rule="nonzero"/></clipPath><clipPath id="fbe55521a7"><rect x="0" width="319" y="0" height="173"/></clipPath></defs><g clip-path="url(#bee4a4cc25)"><g transform="matrix(1, 0, 0, 1, 18, 7)"><g clip-path="url(#fbe55521a7)"><g clip-path="url(#db96dedc1d)"><g transform="matrix(1, 0, 0, 1, -0.000000000000003553, 27)"><g clip-path="url(#3bbbd68014)"><g fill="#000000" fill-opacity="1"><g transform="translate(1.14573, 58.422937)"><g><path d="M 42.40625 0 L 42.40625 -29.1875 C 42.40625 -32.414062 42.5 -35.519531 42.6875 -38.5 C 41.675781 -34.789062 40.765625 -31.890625 39.953125 -29.796875 L 28.65625 0 L 24.5 0 L 13.03125 -29.796875 L 11.296875 -35.078125 L 10.28125 -38.5 L 10.375 -35.046875 L 10.5 -29.1875 L 10.5 0 L 5.21875 0 L 5.21875 -43.734375 L 13 -43.734375 L 24.65625 -13.40625 C 25.0625 -12.1875 25.457031 -10.878906 25.84375 -9.484375 C 26.226562 -8.085938 26.484375 -7.078125 26.609375 -6.453125 C 26.773438 -7.285156 27.117188 -8.546875 27.640625 -10.234375 C 28.171875 -11.921875 28.53125 -12.976562 28.71875 -13.40625 L 40.140625 -43.734375 L 47.75 -43.734375 L 47.75 0 Z M 42.40625 0 "/></g></g></g><g fill="#000000" fill-opacity="1"><g transform="translate(57.270816, 58.422937)"><g><path d="M 5.21875 0 L 5.21875 -43.734375 L 38.40625 -43.734375 L 38.40625 -38.890625 L 11.140625 -38.890625 L 11.140625 -24.859375 L 36.53125 -24.859375 L 36.53125 -20.078125 L 11.140625 -20.078125 L 11.140625 -4.84375 L 39.671875 -4.84375 L 39.671875 0 Z M 5.21875 0 "/></g></g></g><g fill="#000000" fill-opacity="1"><g transform="translate(102.843864, 58.422937)"><g><path d="M 22.6875 0.625 C 19.113281 0.625 15.988281 -0.0234375 13.3125 -1.328125 C 10.644531 -2.640625 8.578125 -4.535156 7.109375 -7.015625 C 5.640625 -9.492188 4.90625 -12.453125 4.90625 -15.890625 L 4.90625 -43.734375 L 10.828125 -43.734375 L 10.828125 -16.390625 C 10.828125 -12.398438 11.84375 -9.367188 13.875 -7.296875 C 15.90625 -5.222656 18.832031 -4.1875 22.65625 -4.1875 C 26.59375 -4.1875 29.648438 -5.253906 31.828125 -7.390625 C 34.015625 -9.535156 35.109375 -12.671875 35.109375 -16.796875 L 35.109375 -43.734375 L 41.015625 -43.734375 L 41.015625 -16.453125 C 41.015625 -12.910156 40.257812 -9.859375 38.75 -7.296875 C 37.25 -4.734375 35.128906 -2.769531 32.390625 -1.40625 C 29.648438 -0.0507812 26.414062 0.625 22.6875 0.625 Z M 22.6875 0.625 "/></g></g></g></g></g></g><g transform="matrix(1, 0, 0, 1, 1, 81)"><g clip-path="url(#d14fa39da7)"><g fill="#000000" fill-opacity="1"><g transform="translate(0.57865, 49.844874)"><g><path d="M 5.015625 0 L 5.015625 -37.375 L 10.078125 -37.375 L 10.078125 0 Z M 5.015625 0 "/></g></g></g><g fill="#000000" fill-opacity="1"><g transform="translate(21.321373, 49.844874)"><g><path d="M 28.703125 0 L 8.703125 -31.828125 L 8.828125 -29.265625 L 8.96875 -24.828125 L 8.96875 0 L 4.453125 0 L 4.453125 -37.375 L 10.34375 -37.375 L 30.5625 -5.328125 C 30.34375 -8.796875 30.234375 -11.304688 30.234375 -12.859375 L 30.234375 -37.375 L 34.796875 -37.375 L 34.796875 0 Z M 28.703125 0 "/></g></g></g><g fill="#000000" fill-opacity="1"><g transform="translate(66.201783, 49.844874)"><g><path d="M 9.515625 -33.234375 L 9.515625 -19.34375 L 30.375 -19.34375 L 30.375 -15.140625 L 9.515625 -15.140625 L 9.515625 0 L 4.453125 0 L 4.453125 -37.375 L 31.015625 -37.375 L 31.015625 -33.234375 Z M 9.515625 -33.234375 "/></g></g></g><g fill="#000000" fill-opacity="1"><g transform="translate(105.034507, 49.844874)"><g><path d="M 39.65625 -18.859375 C 39.65625 -14.953125 38.90625 -11.53125 37.40625 -8.59375 C 35.914062 -5.65625 33.773438 -3.398438 30.984375 -1.828125 C 28.191406 -0.253906 24.894531 0.53125 21.09375 0.53125 C 17.25 0.53125 13.9375 -0.242188 11.15625 -1.796875 C 8.375 -3.359375 6.25 -5.609375 4.78125 -8.546875 C 3.3125 -11.492188 2.578125 -14.929688 2.578125 -18.859375 C 2.578125 -24.835938 4.210938 -29.507812 7.484375 -32.875 C 10.753906 -36.25 15.304688 -37.9375 21.140625 -37.9375 C 24.941406 -37.9375 28.238281 -37.175781 31.03125 -35.65625 C 33.832031 -34.144531 35.96875 -31.945312 37.4375 -29.0625 C 38.914062 -26.1875 39.65625 -22.785156 39.65625 -18.859375 Z M 34.484375 -18.859375 C 34.484375 -23.515625 33.320312 -27.164062 31 -29.8125 C 28.675781 -32.46875 25.390625 -33.796875 21.140625 -33.796875 C 16.859375 -33.796875 13.550781 -32.484375 11.21875 -29.859375 C 8.882812 -27.242188 7.71875 -23.578125 7.71875 -18.859375 C 7.71875 -14.171875 8.894531 -10.453125 11.25 -7.703125 C 13.613281 -4.953125 16.894531 -3.578125 21.09375 -3.578125 C 25.40625 -3.578125 28.710938 -4.90625 31.015625 -7.5625 C 33.328125 -10.226562 34.484375 -13.992188 34.484375 -18.859375 Z M 34.484375 -18.859375 "/></g></g></g></g></g><g transform="matrix(1, 0, 0, 1, 144, 13)"><g clip-path="url(#e458279f53)"><g fill="#155dfc" fill-opacity="1"><g transform="translate(0.665007, 117.068945)"><g><path d="M 12 0 L 12 -89.5 L 24.140625 -89.5 L 24.140625 0 Z M 12 0 "/></g></g></g><g fill="#155dfc" fill-opacity="1"><g transform="translate(22.753412, 117.068945)"><g><path d="M 87.71875 -45.671875 C 87.71875 -36.441406 85.914062 -28.363281 82.3125 -21.4375 C 78.71875 -14.507812 73.613281 -9.203125 67 -5.515625 C 60.394531 -1.835938 52.773438 0 44.140625 0 L 10.671875 0 L 10.671875 -89.5 L 40.265625 -89.5 C 55.421875 -89.5 67.117188 -85.695312 75.359375 -78.09375 C 83.597656 -70.488281 87.71875 -59.679688 87.71875 -45.671875 Z M 75.515625 -45.671875 C 75.515625 -56.765625 72.476562 -65.222656 66.40625 -71.046875 C 60.332031 -76.867188 51.535156 -79.78125 40.015625 -79.78125 L 22.796875 -79.78125 L 22.796875 -9.71875 L 42.75 -9.71875 C 49.3125 -9.71875 55.078125 -11.15625 60.046875 -14.03125 C 65.023438 -16.914062 68.847656 -21.066406 71.515625 -26.484375 C 74.179688 -31.898438 75.515625 -38.296875 75.515625 -45.671875 Z M 75.515625 -45.671875 "/></g></g></g></g></g><g clip-path="url(#de500aa206)"><path stroke-linecap="butt" transform="matrix(-0.0063727, 0.788115, -0.788115, -0.0063727, 302.508096, 21.81664)" fill="none" stroke-linejoin="miter" d="M 4.466636 36.309881 C 56.317715 -2.100567 108.167102 -2.10348 160.019793 36.306058 " stroke="#155dfc" stroke-width="15" stroke-opacity="1" stroke-miterlimit="4"/></g><g clip-path="url(#c59f33b9b2)"><path stroke-linecap="butt" transform="matrix(-0.00463814, 0.788127, -0.788127, -0.00463814, 278.29169, 35.990226)" fill="none" stroke-linejoin="miter" d="M 4.572178 30.30447 C 44.108645 -0.102599 83.640675 -0.102297 123.17815 30.300363 " stroke="#155dfc" stroke-width="15" stroke-opacity="1" stroke-miterlimit="4"/></g></g></g></g></svg>